<?xml version="1.0" encoding="UTF-8" standalone="no"?>
<!-- Generator: Adobe Illustrator 22.0.1, SVG Export Plug-In . SVG Version: 6.00 Build 0)  -->

<svg
   version="1.1"
   id="Layer_1"
   x="0px"
   y="0px"
   viewBox="0 0 217 167.60001"
   xml:space="preserve"
   sodipodi:docname="tormach-logo-color-vertical.svg"
   width="217"
   height="167.60001"
   inkscape:version="1.1.1 (3bf5ae0, 2021-09-20)"
   xmlns:inkscape="http://www.inkscape.org/namespaces/inkscape"
   xmlns:sodipodi="http://sodipodi.sourceforge.net/DTD/sodipodi-0.dtd"
   xmlns="http://www.w3.org/2000/svg"
   xmlns:svg="http://www.w3.org/2000/svg"><defs
   id="defs978" /><sodipodi:namedview
   id="namedview976"
   pagecolor="#ffffff"
   bordercolor="#666666"
   borderopacity="1.0"
   inkscape:pageshadow="2"
   inkscape:pageopacity="0.0"
   inkscape:pagecheckerboard="0"
   showgrid="false"
   fit-margin-left="0.5"
   fit-margin-top="0.5"
   fit-margin-bottom="0.5"
   fit-margin-right="0.5"
   lock-margins="true"
   inkscape:zoom="3.9388889"
   inkscape:cx="103.83639"
   inkscape:cy="26.276446"
   inkscape:window-width="2560"
   inkscape:window-height="1361"
   inkscape:window-x="0"
   inkscape:window-y="0"
   inkscape:window-maximized="1"
   inkscape:current-layer="g973" />
<g
   id="g973"
   transform="translate(-71.5,-96.2)">
	<g
   id="g957"
   style="fill:#263746;fill-opacity:1">
		<g
   id="g955"
   style="fill:#263746;fill-opacity:1">
			<g
   id="g953"
   style="fill:#263746;fill-opacity:1">
				<path
   d="m 284.3,242.7 c 2.1,0 3.7,1.7 3.7,3.7 0,2.1 -1.7,3.8 -3.7,3.8 -2.1,0 -3.8,-1.6 -3.8,-3.8 0,-2 1.7,-3.7 3.8,-3.7 z m 0,0.6 c -1.7,0 -3,1.4 -3,3.2 0,1.8 1.4,3.2 3.1,3.2 1.7,0 3,-1.4 3,-3.2 -0.1,-1.8 -1.4,-3.2 -3.1,-3.2 z m -0.7,5.3 h -0.7 v -4.2 c 0.4,-0.1 0.7,-0.1 1.2,-0.1 0.6,0 1.1,0.1 1.3,0.3 0.2,0.2 0.4,0.5 0.4,0.9 0,0.5 -0.4,0.9 -0.8,1 v 0 c 0.4,0.1 0.6,0.4 0.7,1 0.1,0.6 0.2,0.9 0.3,1 h -0.7 c -0.1,-0.1 -0.2,-0.5 -0.3,-1.1 -0.1,-0.5 -0.4,-0.7 -0.9,-0.7 h -0.5 z m 0,-2.3 h 0.5 c 0.6,0 1,-0.2 1,-0.7 0,-0.4 -0.3,-0.7 -1,-0.7 -0.2,0 -0.4,0 -0.5,0 z"
   id="path937"
   style="fill:#263746;fill-opacity:1" />
				<path
   d="m 231.5,263.3 c -5.3,0 -8.8,-1.2 -8.8,-7.2 V 250 c 0,-6 3.5,-7.2 8.8,-7.2 h 7.3 c 4.7,0 7.2,0.5 8.4,1.8 1.2,1.2 1.4,3 1.4,5.5 h -6 v -0.4 c 0,-1.8 -1.5,-2 -3.1,-2 h -6.8 c -3.4,0 -4,1.6 -4,4.2 v 2.2 c 0,2.8 0.6,4.2 3.7,4.2 h 6.6 c 2.7,0 3.7,-0.2 3.8,-2.8 h 6 v 1.8 c 0,3.1 -0.9,6 -7.3,6 z"
   id="path939"
   style="fill:#263746;fill-opacity:1" />
				<path
   d="m 105.3,263.3 c -2.4,0 -4.2,-0.3 -6.2,-1.8 -1.6,-1.2 -1.6,-4.7 -1.5,-6.7 0,-0.2 0,-0.5 0,-0.6 v -2.7 c 0,-1.9 0,-5.5 2.1,-7.2 1.6,-1.3 3.1,-1.4 5.4,-1.4 h 11.6 c 2.7,0 4.5,0.1 6.5,1.6 2.5,1.9 2.5,5.1 2.5,6.8 v 0.4 2.7 c 0,2.3 0,5.8 -2,7.3 -1.4,1.1 -3.6,1.6 -6.5,1.6 z m 1.6,-15.9 c -0.6,0 -1.5,0 -2.1,0.5 -1.1,0.7 -1.2,1.9 -1.2,3 v 4.3 c 0,1 0,1.8 0.6,2.6 0.5,0.6 2,0.9 2.7,0.9 h 8.6 c 0.9,0 1.8,-0.2 2.4,-0.7 0.8,-0.6 0.9,-1.5 0.9,-2.3 v -5.4 c 0,-1 -0.3,-1.7 -0.9,-2.2 -0.7,-0.6 -1.5,-0.6 -2.5,-0.6 h -8 z"
   id="path941"
   style="fill:#263746;fill-opacity:1" />
				<path
   d="M 128.5,263.3 V 242.8 H 147 c 1.6,0 2.7,0.1 4,1 1.4,1 2.1,2.4 2.1,4.2 v 3 c 0,1.5 -0.4,2.5 -1.2,3.1 -0.8,0.6 -2.3,1 -2.4,1 v 0.3 c 0.3,0 2.2,0.6 2.9,1.6 0.6,0.8 0.7,1.6 0.7,2.5 v 3.8 h -6 v -3.6 c 0,-0.6 -0.2,-1.1 -0.8,-1.5 -0.4,-0.3 -0.8,-0.4 -1.4,-0.4 h -10.5 v 5.5 z m 5.9,-10.1 h 10.3 c 0.7,0 1.4,0 2,-0.6 0.4,-0.5 0.6,-0.9 0.6,-1.5 v -1.5 c 0,-0.6 0,-1.1 -0.5,-1.6 -0.5,-0.5 -1.1,-0.5 -1.7,-0.5 h -10.7 z"
   id="path943"
   style="fill:#263746;fill-opacity:1" />
				<path
   d="m 215.9,263.3 -2.1,-3.7 h -13.1 l -1.9,3.7 h -6.6 l 11.3,-20.5 h 8 l 11.2,20.5 z m -13.2,-7.8 h 8.8 l -4.3,-8.1 z"
   id="path945"
   style="fill:#263746;fill-opacity:1" />
				<polygon
   points="257.8,255.6 257.8,263.3 251.7,263.3 251.7,242.8 257.8,242.8 257.8,250.4 269.9,250.4 269.9,242.8 276,242.8 276,263.3 269.9,263.3 269.9,255.6 "
   id="polygon947"
   style="fill:#263746;fill-opacity:1" />
				<polygon
   points="184.3,248.4 184.2,248.5 175.9,263.3 171.3,263.3 163,248.4 162.8,248.4 162.7,248.5 162.7,263.3 156.8,263.3 156.8,242.8 166.3,242.8 173.6,256.3 180.9,242.8 190.4,242.8 190.4,263.3 184.5,263.3 184.5,248.4 "
   id="polygon949"
   style="fill:#263746;fill-opacity:1" />
				<polygon
   points="72,247.7 72,242.8 96,242.8 96,247.7 87,247.7 87,263.3 80.9,263.3 80.9,247.7 "
   id="polygon951"
   style="fill:#263746;fill-opacity:1" />
			</g>
		</g>
	</g>
	<g
   id="g961"
   style="fill:#263746;fill-opacity:1">
		<path
   d="M 226.2,108.1 C 219.1,100.8 209.6,96.7 199.3,96.7 H 147 c -21.1,0 -36.4,17 -36.4,40.5 v 45.9 c 0,23.4 15.3,40.5 36.4,40.5 h 52.3 c 10.2,0 19.8,-4 26.9,-11.4 7.2,-7.4 11.1,-17.6 11.2,-28.7 v 0 -46.3 c 0,-11.3 -4,-21.6 -11.2,-29.1 z m 3.4,75 c 0,18.6 -13.4,32.7 -31.1,32.7 h -50.7 c -17.3,0 -29.4,-13.4 -29.4,-32.7 v -45.9 c 0,-19.2 12.1,-32.7 29.4,-32.7 h 50.7 c 17.7,0 31.1,14 31.1,32.7 z"
   id="path959"
   style="fill:#263746;fill-opacity:1" />
	</g>
	<g
   id="g967"
   style="fill:#263746;fill-opacity:1">
		<path
   d="m 216.6,143.8 v -17.4 c 0,-0.2 -0.1,-0.3 -0.3,-0.3 h -81.1 c -0.1,0 -0.3,0.1 -0.3,0.1 l -6.3,6.3 c -0.1,0.1 -0.1,0.2 -0.1,0.3 v 0 c 0,0.2 0.1,0.3 0.3,0.3 h 80.6 c 0.1,0 0.2,0.1 0.2,0.2 v 3.5 c 0,0.1 -0.1,0.2 -0.2,0.2 h -39.1 c -0.2,0 -0.3,0.1 -0.4,0.2 l -8.3,8.3 c -0.1,0.1 -0.2,0.3 -0.2,0.4 v 55.2 c 0,0.2 0.1,0.3 0.3,0.3 h 21.8 c 0.2,0 0.3,-0.1 0.3,-0.3 V 148 h -5.6 c -0.1,0 -0.1,0 -0.1,0.1 l -3.5,3.5 c 0,0 -0.1,0.1 -0.1,0.1 v 0 42.5 c 0,0.1 -0.1,0.2 -0.2,0.2 h -3.5 c -0.1,0 -0.2,-0.1 -0.2,-0.2 v -44.1 c 0,-0.1 0,-0.2 0.1,-0.3 l 5.6,-5.6 c 0.1,-0.1 0.2,-0.1 0.3,-0.1 h 39.7 v 0 c 0.2,0 0.3,-0.1 0.3,-0.3 z"
   id="path963"
   style="fill:#263746;fill-opacity:1" />
		<path
   d="m 164.3,137.1 h -35.5 c -0.2,0 -0.3,0.1 -0.3,0.3 v 6.4 c 0,0.2 0.1,0.3 0.3,0.3 h 28.4 c 0.2,0 0.4,-0.1 0.5,-0.2 l 6.7,-6.7 c 0,0 0,-0.1 -0.1,-0.1 z"
   id="path965"
   style="fill:#263746;fill-opacity:1" />
	</g>
	<g
   id="g971"
   style="fill:#263746;fill-opacity:1">
		<path
   d="m 220.9,125.6 h -0.8 v 2.5 h -0.5 v -2.5 h -0.8 v -0.5 h 2.1 z m 3.4,2.5 h -0.5 v -2 l -0.6,1.3 h -0.5 l -0.6,-1.3 v 2 h -0.5 v -3 h 0.5 l 0.9,1.7 0.9,-1.7 h 0.5 v 3 z"
   id="path969"
   style="fill:#263746;fill-opacity:1" />
	</g>
</g>
</svg>
